<?xml version="1.0" encoding="UTF-8"?><svg xmlns="http://www.w3.org/2000/svg" viewBox="0 0 500 500"><defs><style>.cls-1{letter-spacing:.1em;}.cls-2{letter-spacing:.24em;}.cls-3{letter-spacing:.09em;}.cls-4{letter-spacing:.23em;}.cls-5{fill:#ffdcc5;}.cls-6{fill:#f25353;}.cls-7{letter-spacing:.1em;}.cls-8{fill:#fff;}.cls-9{fill:#ddb7a2;}.cls-10{font-family:Montserrat-Light, Montserrat;font-size:12.44px;font-weight:300;}.cls-10,.cls-11{fill:#841e1e;}.cls-12,.cls-13{fill:#d83030;}.cls-14{fill:#bc1d1d;}.cls-15{fill:#ffeee3;}.cls-13{font-family:Montserrat-Bold, Montserrat;font-size:30.16px;font-weight:700;}.cls-16{letter-spacing:.07em;}.cls-17{fill:#ffd0b6;}.cls-18{fill:#ffc6a9;}.cls-19{letter-spacing:.23em;}.cls-20{letter-spacing:.24em;}.cls-21{letter-spacing:.23em;}.cls-22{letter-spacing:.22em;}</style></defs><g id="BACKGROUND"><rect class="cls-18" width="500" height="500"/></g><g id="OBJECTS"><path class="cls-17" d="M464.13,268.78c0,49.58-16.85,95.24-45.15,131.53-.09.12-.19.25-.27.37-10.41-2.51-20.83-4.65-31.31-6.4-2.9-.48-5.82-.94-8.74-1.38-14.21-2.12-28.46-3.76-42.75-4.99h-.04c-28.56-2.49-57.21-3.52-85.87-3.6-28.66.05-57.31,1.09-85.87,3.59h-.04c-14.3,1.23-28.54,2.85-42.75,4.99-2.92.43-5.83.89-8.74,1.38-10.49,1.75-20.9,3.9-31.31,6.42-.09-.11-.17-.22-.26-.35-28.31-36.29-45.16-81.96-45.16-131.55,0-118.26,95.87-214.13,214.13-214.13s214.13,95.87,214.13,214.13Z"/><path class="cls-5" d="M396.84,268.78c0,49.05-24.04,92.47-60.97,119.13-28.56-2.49-57.21-3.52-85.87-3.6-28.66.05-57.31,1.09-85.87,3.59-36.93-26.66-60.96-70.08-60.96-119.12,0-81.09,65.74-146.83,146.84-146.83s146.83,65.74,146.83,146.83Z"/><circle class="cls-15" cx="250.01" cy="268.78" r="83.14" transform="translate(-55.78 471.86) rotate(-80.66)"/><path class="cls-8" d="M353.42,257.39c.07-.07.14-.15.21-.22-23.63,36.74-64.82,61.07-111.71,61.07-73.28,0-132.66-59.38-132.66-132.66S168.64,52.92,241.92,52.92c46.95,0,88.17,24.39,111.79,61.22.64,1,1.27,2.01,1.89,3.03-19.11-22.07-47.46-36.04-78.99-36.04-57.9,0-104.87,46.97-104.87,104.87s46.97,104.88,104.87,104.88c30.36,0,57.71-12.89,76.81-33.49Z"/><path class="cls-9" d="M353.42,257.39c-21.52,27.96-55.34,45.98-93.37,45.98-65.05,0-117.79-52.73-117.79-117.79s52.74-117.79,117.79-117.79c38.19,0,72.14,18.18,93.66,46.35.64,1,1.27,2.01,1.89,3.03-19.11-22.07-47.46-36.04-78.99-36.04-57.9,0-104.87,46.97-104.87,104.87s46.97,104.88,104.87,104.88c30.36,0,57.71-12.89,76.81-33.49Z"/><polygon class="cls-8" points="360.64 149.82 351.23 178.79 320.78 178.79 345.42 196.69 336.01 225.65 360.64 207.75 385.28 225.65 375.87 196.69 400.51 178.79 370.05 178.79 360.64 149.82"/><polygon class="cls-9" points="360.64 207.75 360.64 191.95 336.01 225.65 360.64 207.75"/><polygon class="cls-9" points="360.64 191.95 345.42 196.69 320.78 178.79 360.64 191.95"/><polygon class="cls-9" points="351.23 178.79 360.64 191.95 360.64 149.82 351.23 178.79"/><polygon class="cls-9" points="360.64 191.95 385.28 225.65 360.64 207.75 360.64 191.95"/><polygon class="cls-9" points="360.64 191.95 400.51 178.79 375.87 196.69 360.64 191.95"/><text class="cls-10" transform="translate(221.91 421.23)"><tspan class="cls-21" x="0" y="0">T</tspan><tspan class="cls-2" x="9.81" y="0">u</tspan><tspan class="cls-4" x="21.12" y="0">r</tspan><tspan class="cls-22" x="28.9" y="0">k</tspan><tspan class="cls-19" x="38.94" y="0">e</tspan><tspan class="cls-20" x="49.22" y="0">y</tspan></text><text class="cls-13" transform="translate(139.15 449.3)"><tspan class="cls-3" x="0" y="0">C</tspan><tspan class="cls-7" x="24.7" y="0">ANAK</tspan><tspan class="cls-16" x="129.66" y="0">K</tspan><tspan class="cls-1" x="154.06" y="0">ALE</tspan></text><rect class="cls-11" x="141.25" y="416.55" width="48.97" height=".91"/><rect class="cls-11" x="309.15" y="416.55" width="48.97" height=".91"/><text/><path class="cls-11" d="M371.94,93.52c2.11,3.3,6.14,5.49,10.05,5.44-2.07,2.92-5.91,4.37-9.45,3.87-3.55-.5-6.72-2.76-8.56-5.83.88-.04,1.7-.42,2.36-1-1.6-.98-2.17-2.93-2.97-4.63-.48-1.01-1.64-1.7-2.73-1.48.41-.8,1.22-1.39,2.1-1.54.89-.15,1.84.13,2.5.75-1.05-2.49-.31-5.63,1.16-7.89,1.47-2.27,3.63-3.99,5.76-5.67.3,3.69-.62,7.43-2.69,10.49,4.19-2.53,7.61-6.27,9.49-10.79.88,3.32.57,6.96-.69,10.16-1.26,3.2-3.42,6.3-6.33,8.13Z"/><path class="cls-11" d="M413.04,154.28c2.37,3.7,6.89,6.16,11.27,6.1-2.32,3.27-6.62,4.91-10.6,4.34-3.98-.56-7.53-3.09-9.6-6.54.99-.05,1.91-.47,2.65-1.13-1.8-1.1-2.43-3.28-3.33-5.19-.54-1.14-1.83-1.9-3.07-1.66.46-.9,1.36-1.56,2.36-1.73,1-.17,2.06.15,2.8.84-1.18-2.8-.35-6.31,1.3-8.85,1.65-2.54,4.08-4.48,6.45-6.36.34,4.13-.69,8.33-3.01,11.77,4.7-2.84,8.54-7.03,10.64-12.1.99,3.73.64,7.81-.77,11.39-1.42,3.59-3.83,7.07-7.1,9.11Z"/><path class="cls-11" d="M167.52,74.18c2,3.12,5.82,5.2,9.53,5.16-1.96,2.77-5.6,4.15-8.96,3.67-3.36-.48-6.36-2.61-8.11-5.52.84-.04,1.61-.4,2.24-.95-1.52-.93-2.05-2.77-2.81-4.38-.45-.96-1.55-1.61-2.59-1.4.39-.76,1.15-1.31,1.99-1.46.84-.15,1.74.12,2.37.71-.99-2.36-.3-5.33,1.1-7.48,1.4-2.15,3.44-3.78,5.45-5.37.29,3.49-.58,7.04-2.55,9.94,3.97-2.4,7.22-5.94,8.99-10.22.84,3.15.54,6.6-.65,9.63s-3.24,5.97-6,7.7Z"/><path class="cls-11" d="M313.43,128.83c-1.15-.64-2.57-.74-3.8-.28,1.41-2.27,4.18-3.53,6.82-3.16,3.76-6.68,5.81-14.28,5.74-21.94,2.14,3.41,3.45,7.25,3.44,11.28-.01,4.03-1.19,8.05-3.36,11.45,4.72,1.01,9.74,1.11,14.43-.04-.65,3.62-2.82,6.94-5.93,8.89-3.11,1.95-7.06,2.52-10.59,1.52.56-1.59-.05-3.26-1.42-4.25-2.51,5.28-8.08,8.99-13.9,9.55,3.13-4.08,6.17-8.49,8.57-13.03Z"/><path class="cls-11" d="M183.69,127.44c-.89-.49-1.99-.57-2.95-.22,1.09-1.75,3.24-2.73,5.28-2.45,2.91-5.17,4.5-11.06,4.45-17,1.66,2.64,2.68,5.61,2.67,8.73-.01,3.12-.93,6.24-2.6,8.87,3.66.78,7.55.86,11.18-.03-.5,2.8-2.18,5.37-4.59,6.88-2.41,1.51-5.47,1.95-8.21,1.18.44-1.23-.04-2.53-1.1-3.29-1.95,4.09-6.26,6.96-10.77,7.4,2.42-3.16,4.78-6.58,6.64-10.09Z"/><path class="cls-11" d="M99.28,118.33c-1.32-.73-2.97-.85-4.38-.32,1.63-2.61,4.82-4.06,7.86-3.64,4.33-7.7,6.69-16.46,6.61-25.29,2.47,3.93,3.98,8.35,3.96,13-.02,4.65-1.38,9.28-3.87,13.2,5.44,1.16,11.23,1.28,16.63-.04-.75,4.17-3.25,7.99-6.84,10.24s-8.13,2.9-12.21,1.75c.65-1.83-.06-3.76-1.63-4.89-2.9,6.08-9.31,10.36-16.02,11.01,3.6-4.7,7.11-9.78,9.88-15.02Z"/><rect class="cls-11" x="103.43" y="172.91" width="3.13" height="219.37" transform="translate(279.82 528.21) rotate(164.94)"/><path class="cls-12" d="M94.97,251.33c17.85-22.74,39.78-15.69,61.12-13.07,5.54.7,11.06,1.08,16.44.56,10-.94,19.56-4.99,28.18-15.96l-19.98-74.23c-10.8,13.73-23.1,16.61-35.83,16.14-.03,0-.08,0-.12,0-23.97-.91-49.52-13.5-69.8,12.32l19.98,74.25Z"/><path class="cls-8" d="M93.46,205.29c3.18,11.8,15.31,18.79,27.11,15.61,7.55-2.03,13.13-7.73,15.34-14.68-2.18,4.17-6.03,7.45-10.94,8.77-9.32,2.51-18.92-3.01-21.43-12.34-2.51-9.32,3.02-18.92,12.34-21.43,5.08-1.37,10.25-.35,14.28,2.38-5.42-5.19-13.32-7.51-21.09-5.42-11.8,3.18-18.79,15.31-15.61,27.11Z"/><polygon class="cls-8" points="131.92 188.72 130.55 192.94 126.29 194.2 129.88 196.82 129.76 201.26 133.36 198.65 137.55 200.13 136.18 195.91 138.88 192.38 134.44 192.38 131.92 188.72"/><path class="cls-14" d="M172.53,238.83c10-.94,19.56-4.99,28.18-15.96l-19.98-74.23c-10.8,13.73-23.1,16.61-35.83,16.14,18.48,19.71,28.68,47.05,27.63,74.05Z"/><path class="cls-12" d="M304.21,350.24v-22.96h-4.49v-14.87h-3.62v-64.37l-5.4-2.71v-26.7h-3.6v-53.44h-4.93v-18.47h-2.71v-42.3h-5.85l-23.43-54.04-23.41,54.04h-5.85v42.3h-2.71v18.47h-4.93v53.44h-3.6v26.7l-5.4,2.71v64.37h-3.62v14.87h-4.49v22.96h-5.4v13.05h32.81v-58.17c0-14.69,11.91-26.61,26.61-26.61,7.36,0,14,2.98,18.83,7.8,4.82,4.8,7.8,11.45,7.8,18.8v58.17h32.81v-13.05h-5.4ZM234.42,138.43c0-8.71,7.05-15.78,15.76-15.78,4.36,0,8.31,1.78,11.16,4.62,2.87,2.85,4.62,6.8,4.62,11.16v26.76h-31.54v-26.76ZM270.27,245.33h-40.17v-39.21c0-11.09,8.98-20.09,20.07-20.09,5.56,0,10.58,2.24,14.23,5.89,3.62,3.65,5.87,8.67,5.87,14.2v39.21Z"/><rect class="cls-11" x="220.92" y="105.69" width="58.53" height="1.28"/><rect class="cls-6" x="220.92" y="104.4" width="58.53" height="1.28"/><rect class="cls-11" x="213.27" y="166.47" width="73.83" height="1.28"/><rect class="cls-6" x="213.27" y="165.19" width="73.83" height="1.28"/><rect class="cls-11" x="204.26" y="249.32" width="91.84" height="1.28"/><rect class="cls-6" x="204.26" y="248.03" width="91.84" height="1.28"/><path class="cls-11" d="M265.96,131.79v6.65c0-4.36-1.76-8.31-4.62-11.16-2.84-2.85-6.8-4.62-11.16-4.62-8.71,0-15.76,7.07-15.76,15.78v-6.65c0-8.71,7.05-15.78,15.76-15.78,4.36,0,8.31,1.76,11.16,4.62,2.87,2.87,4.62,6.8,4.62,11.16Z"/><path class="cls-11" d="M270.27,197.67v8.45c0-5.53-2.24-10.56-5.87-14.2-3.65-3.65-8.67-5.89-14.23-5.89-11.09,0-20.07,9-20.07,20.09v-8.45c0-11.09,8.98-20.09,20.07-20.09,5.56,0,10.58,2.24,14.23,5.89,3.62,3.65,5.87,8.67,5.87,14.2Z"/><path class="cls-11" d="M276.8,293.94v11.18c0-7.36-2.98-14-7.8-18.8-4.82-4.82-11.47-7.8-18.83-7.8-14.69,0-26.61,11.91-26.61,26.61v-11.18c0-14.69,11.91-26.61,26.61-26.61,7.36,0,14,2.98,18.83,7.8,4.82,4.8,7.8,11.47,7.8,18.8Z"/><rect class="cls-11" x="219.95" y="138.7" width="15.49" height="1.28"/><rect class="cls-6" x="219.95" y="137.41" width="15.49" height="1.28"/><rect class="cls-11" x="212.2" y="211.75" width="19.12" height="1.28"/><rect class="cls-6" x="212.2" y="210.47" width="19.12" height="1.28"/><rect class="cls-11" x="269.05" y="211.75" width="19.12" height="1.28" transform="translate(557.22 424.79) rotate(180)"/><rect class="cls-6" x="269.05" y="210.47" width="19.12" height="1.28" transform="translate(557.22 422.22) rotate(180)"/><rect class="cls-11" x="203.01" y="305.89" width="21.64" height="1.28" transform="translate(427.67 613.06) rotate(180)"/><rect class="cls-6" x="203.01" y="304.61" width="21.64" height="1.28" transform="translate(427.67 610.5) rotate(180)"/><rect class="cls-11" x="275.72" y="305.89" width="21.64" height="1.28"/><rect class="cls-6" x="275.72" y="304.61" width="21.64" height="1.28"/><rect class="cls-11" x="264.94" y="138.7" width="15.49" height="1.28" transform="translate(545.36 278.68) rotate(180)"/><rect class="cls-6" x="264.94" y="137.41" width="15.49" height="1.28" transform="translate(545.36 276.11) rotate(180)"/><polygon class="cls-6" points="250.19 50.39 240.24 104.4 226.77 104.42 250.19 50.39"/><polygon class="cls-11" points="250.19 50.39 260.13 104.4 273.6 104.42 250.19 50.39"/><polygon class="cls-11" points="220.92 146.01 220.92 146.74 225.4 146.74 220.92 146.01"/><polygon class="cls-11" points="213.27 217.41 213.27 218.63 220.82 218.63 213.27 217.41"/><polygon class="cls-11" points="204.26 311.2 204.26 312.42 211.82 312.42 204.26 311.2"/><polygon class="cls-11" points="200.66 326.06 200.66 327.27 208.22 327.27 200.66 326.06"/><polygon class="cls-11" points="196.16 349.02 196.16 350.24 203.71 350.24 196.16 349.02"/><polygon class="cls-11" points="296.11 311.2 296.11 312.42 288.55 312.42 296.11 311.2"/><polygon class="cls-11" points="299.71 326.06 299.71 327.27 292.15 327.27 299.71 326.06"/><polygon class="cls-11" points="304.21 349.02 304.21 350.24 296.66 350.24 304.21 349.02"/><polygon class="cls-11" points="287.1 217.41 287.1 218.63 279.55 218.63 287.1 217.41"/><polygon class="cls-11" points="279.45 146.01 279.45 146.74 274.97 146.74 279.45 146.01"/><rect class="cls-12" x="240.73" y="361.18" width="18.91" height="2.1"/><polygon class="cls-12" points="383.18 377.65 383.18 391.36 334.86 377 165.49 377 117.16 391.36 117.16 377.65 165.49 363.29 334.88 363.29 383.18 377.65"/><polygon class="cls-11" points="383.18 387.32 383.18 391.36 334.86 377 165.49 377 117.16 391.36 117.16 387.32 159.73 374.67 340.64 374.67 340.64 374.69 383.18 387.32"/><path class="cls-11" d="M427.01,404.26c-.81-.21-1.63-.4-2.44-.59-10.76-2.59-21.53-4.81-32.37-6.62-3-.5-6.02-.98-9.03-1.42-14.69-2.19-29.42-3.89-44.2-5.16-29.53-2.58-59.17-3.64-88.8-3.72-29.63.05-59.27,1.13-88.8,3.71-14.78,1.27-29.51,2.95-44.2,5.16-3.01.45-6.03.92-9.03,1.42-10.84,1.81-21.6,4.03-32.37,6.63-.81.19-1.63.38-2.44.59.72-.33,1.44-.65,2.17-.95,10.53-4.68,21.51-8.38,32.64-11.57v-.05l51.59-15.33h180.9s51.57,15.33,51.57,15.33v.03c11.14,3.21,22.1,6.9,32.65,11.57.72.32,1.44.64,2.16.98Z"/></g></svg>